<svg xmlns="http://www.w3.org/2000/svg" width="192" height="192" viewBox="0 0 128 128">
  <defs>
    <linearGradient id="sandTop" x1="0" y1="0" x2="0" y2="1">
      <stop offset="0" stop-color="#ff8e8e"/>
      <stop offset="1" stop-color="#ff6b6b"/>
    </linearGradient>
    <linearGradient id="sandBot" x1="0" y1="0" x2="0" y2="1">
      <stop offset="0" stop-color="#d6b966"/>
      <stop offset="1" stop-color="#c9a84c"/>
    </linearGradient>
  </defs>
  <rect width="128" height="128" rx="24" fill="#0c1426"/>
  <path d="M40 22 L88 22 L88 60 Q88 64 64 64 Q40 64 40 60 Z" fill="url(#sandTop)" opacity="0.78"/>
  <circle cx="64" cy="64" r="3.5" fill="#eef2ff"/>
  <circle cx="64" cy="64" r="2.5" fill="#c9a84c"/>
  <path d="M40 106 L88 106 L88 68 Q88 64 64 64 Q40 64 40 68 Z" fill="url(#sandBot)" opacity="0.92"/>
  <line x1="36" y1="22" x2="92" y2="22" stroke="#eef2ff" stroke-width="3.5" stroke-linecap="round"/>
  <line x1="36" y1="106" x2="92" y2="106" stroke="#eef2ff" stroke-width="3.5" stroke-linecap="round"/>
  <!-- 雨粒 -->
  <line x1="20" y1="20" x2="17" y2="36" stroke="#6bb6ff" stroke-width="2" stroke-linecap="round" opacity="0.5"/>
  <line x1="108" y1="92" x2="111" y2="108" stroke="#c890d8" stroke-width="2" stroke-linecap="round" opacity="0.45"/>
</svg>
